<?xml version="1.0" encoding="UTF-8"?>
<svg width="22px" height="22px" viewBox="0 0 22 22" version="1.1" xmlns="http://www.w3.org/2000/svg" xmlns:xlink="http://www.w3.org/1999/xlink">
    <!-- Generator: Sketch 61 (89581) - https://sketch.com -->
    <title>Icon/申报-默认</title>
    <desc>Created with Sketch.</desc>
    <g id="Icon/申报-默认" stroke="none" stroke-width="1" fill="none" fill-rule="evenodd">
        <path d="M11.0000402,2.75435383 C6.45272171,2.75435383 2.75434317,6.45263061 2.75434317,11.0000509 C2.75434317,15.5473694 6.45272171,19.2456462 11.0000402,19.2456462 C15.5473587,19.2456462 19.2456355,15.5473694 19.2456355,11.0000509 C19.2456355,6.45263061 15.5473587,2.75435383 11.0000402,2.75435383 M11.0000402,21 C5.48778131,21 0.99998934,16.5124115 0.99998934,11.0000509 C0.99998934,5.48769022 5.48778131,1 11.0000402,1 C16.5124009,1 20.9999893,5.48769022 20.9999893,11.0000509 C20.9999893,16.5124115 16.5124009,21 11.0000402,21" id="Fill-3" fill="#555555"></path>
        <path d="M10.3207356,10.3615162 L10.3207356,8.90362258 L8.41144313,8.90362258 C8.01513426,8.90362258 7.69370899,9.1998537 7.69370899,9.56509883 L7.69370899,10.3615162 L10.3207356,10.3615162 Z M11.7562038,10.3615162 L14.3832304,10.3615162 L14.3832304,8.90362258 L11.7562038,8.90362258 L11.7562038,10.3615162 Z M7.69370899,13.1412599 L10.3207356,13.1412599 L10.3207356,11.6844687 L7.69370899,11.6844687 L7.69370899,13.1412599 Z M14.3832304,12.4797837 L14.3832304,11.6844687 L11.7562038,11.6844687 L11.7562038,13.1412599 L13.6654963,13.1412599 C14.0618051,13.1412599 14.3832304,12.8450288 14.3832304,12.4797837 L14.3832304,12.4797837 Z M10.3207356,16.4370653 L10.3207356,14.4642124 L6.25824072,14.4642124 L6.25824072,9.34460675 C6.25824072,8.37047273 7.11521528,7.58067009 8.17219841,7.58067009 L10.3207356,7.58067009 L10.3207356,5.48599531 L11.7562038,5.48599531 L11.7562038,7.58067009 L15.8186987,7.58067009 L15.8186987,12.7002757 C15.8186987,13.67452 14.9618437,14.4642124 13.904741,14.4642124 L11.7562038,14.4642124 L11.7562038,16.4370653 L10.3207356,16.4370653 Z" id="Fill-3" fill="#555555"></path>
    </g>
</svg>