<?xml version="1.0" encoding="UTF-8"?>
<svg width="23px" height="24px" viewBox="0 0 23 24" version="1.1" xmlns="http://www.w3.org/2000/svg" xmlns:xlink="http://www.w3.org/1999/xlink">
    <!-- Generator: Sketch 61 (89581) - https://sketch.com -->
    <title>形状结合</title>
    <desc>Created with Sketch.</desc>
    <g id="页面-1" stroke="none" stroke-width="1" fill="none" fill-rule="evenodd">
        <g id="04-2-5图片删除" transform="translate(-335.000000, -74.000000)" fill="#000000">
            <g id="top">
                <g id="编组" transform="translate(335.000000, 74.000000)">
                    <path d="M15.0192178,3.19744231e-14 C15.6844087,3.19744231e-14 16.2294116,0.54996 16.2294116,1.22544 L16.2294116,1.22544 L16.2294116,3.19212 L22.1144689,3.19212 C22.5668368,3.19212 22.9335766,3.56256 22.9335766,4.01976 C22.9335766,4.47684 22.5668368,4.84728 22.1144689,4.84728 L22.1144689,4.84728 L20.1234092,4.84728 L19.0130949,22.82388 C18.972478,23.4798 18.4253374,24 17.776892,24 L17.776892,24 L5.15667266,24 C4.50537699,24 3.96108668,23.4816 3.92046977,22.82388 L3.92046977,22.82388 L2.81003678,4.84728 L0.819095753,4.84728 C0.366727918,4.84728 -1.1876288e-05,4.47684 -1.1876288e-05,4.01976 C-1.1876288e-05,3.56256 0.366727918,3.19212 0.819095753,3.19212 L0.819095753,3.19212 L6.70415307,3.19212 L6.70415307,1.22544 C6.70415307,0.55236 7.24476173,3.19744231e-14 7.91434689,3.19744231e-14 L7.91434689,3.19744231e-14 Z M18.4821061,4.84728 L4.45133988,4.84728 L5.53220091,22.34484 L17.4013638,22.34484 L18.4821061,4.84728 Z M8.64,6.72 C9.17025522,6.72 9.6,7.08551137 9.6,7.53636397 L9.6,7.53636397 L9.6,19.3437544 C9.6,19.7944886 9.17025522,20.16 8.64,20.16 C8.10974478,20.16 7.68,19.7944886 7.68,19.3437544 L7.68,19.3437544 L7.68,7.53636397 C7.68,7.08551137 8.10974478,6.72 8.64,6.72 Z M14.4,6.72 C14.9302552,6.72 15.36,7.08551137 15.36,7.53636397 L15.36,7.53636397 L15.36,19.3437544 C15.36,19.7944886 14.9302552,20.16 14.4,20.16 C13.8697448,20.16 13.44,19.7944886 13.44,19.3437544 L13.44,19.3437544 L13.44,7.53636397 C13.44,7.08551137 13.8697448,6.72 14.4,6.72 Z M14.5913151,1.65516 L8.34224957,1.65516 L8.34224957,3.19212 L14.5913151,3.19212 L14.5913151,1.65516 Z" id="形状结合"></path>
                </g>
            </g>
        </g>
    </g>
</svg>