<?xml version="1.0" encoding="UTF-8"?>
<svg width="22px" height="22px" viewBox="0 0 22 22" version="1.1" xmlns="http://www.w3.org/2000/svg" xmlns:xlink="http://www.w3.org/1999/xlink">
    <!-- Generator: Sketch 61 (89581) - https://sketch.com -->
    <title>Icon/首页-默认</title>
    <desc>Created with Sketch.</desc>
    <g id="Icon/首页-默认" stroke="none" stroke-width="1" fill="none" fill-rule="evenodd">
        <path d="M11.0000507,2 L21,11.128439 L19.2168008,11.1660235 L19.2168008,20.1818182 L2.78319923,20.1818182 L2.78319923,11.1660235 L1,11.128548 L11.0000507,2 Z M11.0000507,4.44178908 L4.53141588,10.3771864 L4.53141588,18.3786375 L17.4685841,18.3786375 L17.4685841,10.3771864 L11.0000507,4.44178908 Z M12.9912288,9.43255565 L14.0087712,10.4893654 L12.2894298,12.3008047 L14.1139851,12.3008047 L14.1139851,13.8103922 L12.0087916,13.8103922 L12.0087916,14.5652406 L14.1139851,14.5652406 L14.1139851,16.0748281 L12.0087916,16.0748281 L12.0087916,17.5844156 L10.6052953,17.5844156 L10.6052953,16.0748281 L8.5,16.0748281 L8.5,14.5652406 L10.6052953,14.5652406 L10.6052953,13.8103922 L8.5,13.8103922 L8.5,12.3008047 L10.3245553,12.3008047 L8.60521389,10.4893654 L9.62275632,9.43255565 L11.3069926,11.2441044 L12.9912288,9.43255565 Z M18.5,2.86580087 L18.5,7.01730324 L14.6403598,2.86580087 L18.5,2.86580087 Z" id="形状结合" fill="#555555"></path>
    </g>
</svg>