<?xml version="1.0" encoding="UTF-8"?>
<svg width="64px" height="64px" viewBox="0 0 64 64" version="1.1" xmlns="http://www.w3.org/2000/svg" xmlns:xlink="http://www.w3.org/1999/xlink">
    <!-- Generator: Sketch 61.2 (89653) - https://sketch.com -->
    <title>Icon/我要缴费备份 5</title>
    <desc>Created with Sketch.</desc>
    <defs>
        <path d="M39,32.089011 L33.7316391,32.089011 L33.7316391,33.8525727 L38.9674632,33.8525727 L38.9674632,37.396426 L33.7316391,37.396426 L33.7316391,40.9400402 L30.2358241,40.9400402 L30.2358241,37.396426 L25,37.396426 L25,33.8525727 L30.2358241,33.8525727 L30.2358241,32.089011 L25.0242847,32.089011 L25.0242847,28.5451577 L29.3170144,28.5451577 L25.4064737,24.5811471 L27.9756985,21.9767925 L31.9838495,26.0397481 L35.9917648,21.9767925 L38.5609896,24.5811471 L34.6504488,28.5451577 L39,28.5451577 L39,32.089011 Z M53.337522,33.9265608 L53.3386927,33.9277335 L48.2261073,33.9277335 L48.2261073,13.4174848 C48.2197854,11.5268615 46.6868293,9.99813278 44.7996098,10.0000045 L19.2024976,10.0000045 C17.3148098,9.99696008 15.7806829,11.5252198 15.7736585,13.4160776 L15.7736585,33.9265608 L10.657561,33.9265608 C9.19274146,33.9265608 8,35.0875316 8,36.5147047 C8.00257561,37.1078552 8.20979512,37.681539 8.58630244,38.1388911 C8.66638049,38.2514701 8.75957073,38.3537293 8.86376585,38.444027 L29.2064,55.9498242 C29.8727805,56.5678359 30.7470829,56.9090909 31.6721951,56.9090909 C32.5912195,56.9090909 33.4643512,56.5727612 34.0602537,56.0157298 L55.118439,38.4663083 C55.2434732,38.3593582 55.3570341,38.2327069 55.4460098,38.102772 C55.8033171,37.6524561 56,37.0954246 56,36.5196301 C55.9950829,35.0875316 54.8021073,33.9265608 53.337522,33.9265608 L53.337522,33.9265608 Z" id="path-1"></path>
    </defs>
    <g id="Icon/我要缴费备份-5" stroke="none" stroke-width="1" fill="none" fill-rule="evenodd">
        <path d="M61.7258,20.4024918 L61.7268,20.4034918 L57.3598,20.4034918 L57.3598,2.91413075 C57.3544,1.30197121 56.045,-0.00159607628 54.433,8.44745111e-16 L32.5688,8.44745111e-16 C30.9564,-0.00259605119 29.646,1.30057124 29.64,2.91293078 L29.64,20.4024918 L25.27,20.4024918 C24.0188,20.4024918 23,21.392467 23,22.6094365 C23.0022,23.1152238 23.1792,23.6044115 23.5008,23.9944017 C23.5692,24.0903993 23.6488,24.1775971 23.7378,24.2545952 L41.1138,39.1820205 C41.683,39.7090073 42.4298,40 43.22,40 C44.005,40 44.7508,39.7132072 45.2598,39.2382191 L63.247,24.2735947 C63.3538,24.182397 63.4508,24.0743997 63.5268,23.9636025 C63.832,23.5796121 64,23.104624 64,22.6136363 C63.9958,21.392467 62.9768,20.4024918 61.7258,20.4024918 L61.7258,20.4024918 Z" id="路径" fill="#FF3D27" opacity="0.3"></path>
        <mask id="mask-2" fill="white">
            <use xlink:href="#path-1"></use>
        </mask>
        <use id="蒙版" fill="#FF3D27" xlink:href="#path-1"></use>
    </g>
</svg>