<?xml version="1.0" encoding="UTF-8"?>
<svg width="38px" height="37px" viewBox="0 0 38 37" version="1.1" xmlns="http://www.w3.org/2000/svg" xmlns:xlink="http://www.w3.org/1999/xlink">
    <!-- Generator: Sketch 61 (89581) - https://sketch.com -->
    <title>Icon/报销</title>
    <desc>Created with Sketch.</desc>
    <defs>
        <path d="M23.6805556,16.8735501 L19.6561132,16.8735501 L19.6561132,18.2207153 L23.6557011,18.2207153 L23.6557011,20.9278254 L19.6561132,20.9278254 L19.6561132,23.634753 L16.985699,23.634753 L16.985699,20.9278254 L12.9861111,20.9278254 L12.9861111,18.2207153 L16.985699,18.2207153 L16.985699,16.8735501 L13.0046619,16.8735501 L13.0046619,14.1664399 L16.2838305,14.1664399 L13.2966118,11.1383762 L15.2592141,9.14893875 L18.3209962,12.2525854 L21.3825981,9.14893875 L23.3452004,11.1383762 L20.3579817,14.1664399 L23.6805556,14.1664399 L23.6805556,16.8735501 Z M34.6328293,18.277234 L34.6337236,18.2781298 L30.7282764,18.2781298 L30.7282764,2.61057868 C30.7234472,1.16635256 29.552439,-0.00142634955 28.110813,3.46864492e-06 L8.55746341,3.46864492e-06 C7.11547967,-0.00232216032 5.94357724,1.16509843 5.93821138,2.6095037 L5.93821138,18.277234 L2.0300813,18.277234 C0.911121951,18.277234 0,19.1640866 0,20.2542883 C0.00196747967,20.7073894 0.160260163,21.14562 0.447869919,21.4949862 C0.50904065,21.5809841 0.580227642,21.6590988 0.659821138,21.7280762 L16.1993333,35.1005601 C16.708374,35.5726524 17.3762439,35.8333333 18.0829268,35.8333333 C18.7849593,35.8333333 19.451935,35.5764148 19.9071382,35.1509047 L35.993252,21.7450966 C36.0887642,21.6633987 36.1755122,21.5666511 36.2434797,21.4673953 C36.5164228,21.1234039 36.6666667,20.6978938 36.6666667,20.2580507 C36.6629106,19.1640866 35.7516098,18.277234 34.6328293,18.277234 L34.6328293,18.277234 Z" id="path-1"></path>
    </defs>
    <g id="页面-1" stroke="none" stroke-width="1" fill="none" fill-rule="evenodd">
        <g id="04-1-1申报" transform="translate(-44.000000, -232.000000)">
            <g id="Icon/报销" transform="translate(44.000000, 232.000000)">
                <g id="椭圆形" transform="translate(0.666667, 0.500000)">
                    <mask id="mask-2" fill="white">
                        <use xlink:href="#path-1"></use>
                    </mask>
                    <use id="蒙版" fill="#517CF8" xlink:href="#path-1"></use>
                    <circle fill="#FFFFFF" opacity="0.289899554" mask="url(#mask-2)" cx="27.0833333" cy="2.91666667" r="7.08333333"></circle>
                </g>
            </g>
        </g>
    </g>
</svg>