<?xml version="1.0" encoding="UTF-8"?>
<svg width="36px" height="40px" viewBox="0 0 36 40" version="1.1" xmlns="http://www.w3.org/2000/svg" xmlns:xlink="http://www.w3.org/1999/xlink">
    <!-- Generator: Sketch 61 (89581) - https://sketch.com -->
    <title>Icon/借支</title>
    <desc>Created with Sketch.</desc>
    <defs>
        <polygon id="path-1" points="0.0709984493 0.0531666667 23.3082104 0.0531666667 23.3082104 24.0345755 0.0709984493 24.0345755"></polygon>
        <polygon id="path-3" points="0.000113636364 0.0253409091 34.9747727 0.0253409091 34.9747727 24.7727273 0.000113636364 24.7727273"></polygon>
    </defs>
    <g id="页面-1" stroke="none" stroke-width="1" fill="none" fill-rule="evenodd">
        <g id="04-1-1申报" transform="translate(-170.000000, -230.000000)">
            <g id="Icon/借支" transform="translate(170.000000, 230.000000)">
                <g id="编组" transform="translate(0.500000, 0.000000)">
                    <g transform="translate(1.666667, 0.000000)">
                        <mask id="mask-2" fill="white">
                            <use xlink:href="#path-1"></use>
                        </mask>
                        <g id="Clip-2"></g>
                        <path d="M5.43691586,23.0413746 L5.56287055,23.297081 C5.8145534,23.9366921 6.44364725,24.1921683 7.07296764,23.9366921 L9.08665696,23.0413746 L5.43691586,23.0413746 Z M3.54918123,9.23185079 C3.54918123,8.5927 4.05254693,8.2090254 4.55591262,8.2090254 L23.3082104,8.2090254 L20.161835,0.66488254 C19.9101521,0.153469841 19.2808317,-0.102236508 18.6515113,0.153469841 L0.780216828,7.82535079 C0.276851133,8.08105714 -0.100559871,8.84817619 0.151122977,9.35981905 L3.54918123,17.2874063 L3.54918123,9.23185079 Z" id="Fill-1" fill="#FFD75C" mask="url(#mask-2)"></path>
                    </g>
                    <path d="M22.6851923,15.6392355 L12.2952386,15.6392355 C11.6616604,15.6392355 11.0283102,15.1214859 11.0283102,14.6037363 C11.0283102,13.9564328 11.5350815,13.5680041 12.2952386,13.5680041 L22.6851923,13.5680041 C23.3185425,13.5680041 23.9521207,14.0857537 23.9521207,14.6037363 C23.9521207,15.1214859 23.4453494,15.6392355 22.6851923,15.6392355 M28.1335548,9.16666667 L6.8468761,9.16666667 C6.34010471,9.16666667 5.83333333,9.68441625 5.83333333,10.2023988 L5.83333333,21.4645008 C5.83333333,21.9822504 6.34010471,22.5 6.8468761,22.5 L28.1335548,22.5 C28.6400981,22.5 29.1470976,21.9822504 29.1470976,21.4645008 L29.1470976,10.2023988 C29.2739045,9.68441625 28.766905,9.16666667 28.1335548,9.16666667" id="Fill-3" fill="#FFD75C"></path>
                    <g transform="translate(0.000000, 15.000000)">
                        <mask id="mask-4" fill="white">
                            <use xlink:href="#path-3"></use>
                        </mask>
                        <g id="Clip-6"></g>
                        <path d="M22.3869318,17.0923864 L22.3869318,19.5192045 L18.7526136,19.5192045 L18.7526136,21.9455682 L16.3260227,21.9455682 L16.3260227,19.5192045 L12.6914773,19.5192045 L12.6914773,17.0923864 L16.3260227,17.0923864 L16.3260227,15.8848864 L12.7085227,15.8848864 L12.7085227,13.4582955 L15.6880682,13.4582955 L12.97375,10.7435227 L14.7571591,8.96056818 L17.5392045,11.7426136 L20.32125,8.96056818 L22.1046591,10.7435227 L19.3901136,13.4582955 L22.4094318,13.4582955 L22.4094318,15.8848864 L18.7526136,15.8848864 L18.7526136,17.0923864 L22.3869318,17.0923864 Z M31.3130682,0.0253409091 C31.1869318,0.0253409091 31.0605682,0.0253409091 30.8080682,0.151477273 L27.1464773,1.79306818 L17.5505682,5.70693182 L7.82829545,1.79306818 L4.16670455,0.151477273 C4.04034091,0.0253409091 3.91420455,0.0253409091 3.66147727,0.0253409091 C1.64147727,0.0253409091 0.000113636364,1.66670455 0.000113636364,3.68693182 L0.000113636364,21.11125 C0.000113636364,23.13125 1.64147727,24.7728409 3.66147727,24.7728409 L31.3130682,24.7728409 C33.3332955,24.7728409 34.9748864,23.13125 34.9748864,21.11125 L34.9748864,3.56056818 C34.9748864,1.66670455 33.3332955,0.0253409091 31.3130682,0.0253409091 L31.3130682,0.0253409091 Z" id="Fill-5" fill="#FFAC16" mask="url(#mask-4)"></path>
                    </g>
                </g>
            </g>
        </g>
    </g>
</svg>