<?xml version="1.0" encoding="UTF-8"?>
<svg width="22px" height="22px" viewBox="0 0 22 22" version="1.1" xmlns="http://www.w3.org/2000/svg" xmlns:xlink="http://www.w3.org/1999/xlink">
    <!-- Generator: Sketch 61.2 (89653) - https://sketch.com -->
    <title>icon/手机号</title>
    <desc>Created with Sketch.</desc>
    <g id="页面-1" stroke="none" stroke-width="1" fill="none" fill-rule="evenodd">
        <g id="02-3个人中心修改" transform="translate(-16.000000, -352.000000)" fill="#333333">
            <g id="图文列表/单行列表-1_13-copy" transform="translate(0.000000, 338.000000)">
                <g id="icon/手机号" transform="translate(16.000000, 14.000000)">
                    <path d="M10.88296,14.7455314 C11.2105714,14.7455314 11.4917943,14.83592 11.7104114,15.0457371 C11.9287771,15.2412229 12.0378971,15.4966743 12.0378971,15.8117143 C12.0378971,16.1267543 11.9130629,16.3822057 11.6946971,16.5926514 C11.4708,16.7904 11.1815314,16.8973829 10.88296,16.8928571 C10.5710629,16.8928571 10.2897143,16.7875086 10.0712229,16.5778171 C9.85838857,16.3805714 9.73921143,16.1019886 9.74361143,15.8117143 C9.74361143,15.4966743 9.85285714,15.2412229 10.0712229,15.0457371 C10.2897143,14.83592 10.5710629,14.7455314 10.88296,14.7455314 L10.88296,14.7455314 Z M11,20.4285714 C16.20696,20.4285714 20.4285714,16.20696 20.4285714,11 C20.4285714,5.79304 16.20696,1.57142857 11,1.57142857 C5.79304,1.57142857 1.57142857,5.79304 1.57142857,11 C1.57142857,16.20696 5.79304,20.4285714 11,20.4285714 L11,20.4285714 Z M11,22 C4.92485714,22 0,17.0751429 0,11 C0,4.92485714 4.92485714,0 11,0 C17.0751429,0 22,4.92485714 22,11 C22,17.0751429 17.0751429,22 11,22 L11,22 Z M10.0555086,12.9988571 L10.0555086,12.826 C10.0555086,12.2697143 10.1497943,11.7888571 10.3675314,11.3991429 C10.5710629,10.9787543 11.1643086,10.3627543 12.1314286,9.53693714 L12.3969371,9.25181714 C12.6782857,8.90610286 12.83392,8.54542857 12.83392,8.15571429 C12.83392,7.62934857 12.6782857,7.22467429 12.3812229,6.92371429 C12.0693257,6.62363429 11.6167543,6.47353143 11.0550629,6.47353143 C10.3518171,6.47353143 9.83714286,6.68410286 9.52524571,7.11932571 C9.24628571,7.47610286 9.10649143,7.98046857 9.10334857,8.63192 C9.10661714,8.66108571 9.10812571,8.69037714 9.108,8.71979429 C9.108,9.15828571 8.74028571,9.51342857 8.28620571,9.51342857 C7.832,9.51342857 7.46428571,9.15828571 7.46428571,8.71979429 C7.46428571,8.69678857 7.46529143,8.67378286 7.46742857,8.65077714 L7.46428571,8.65077714 C7.46428571,7.55467429 7.79202286,6.69906286 8.448,6.06810286 C9.10334857,5.42218286 10.0083657,5.10714286 11.1643086,5.10714286 C12.1628571,5.10714286 12.9744686,5.36246857 13.5991429,5.90304 C14.2238171,6.42877714 14.5357143,7.14924571 14.5357143,8.05049143 C14.5357143,8.78592 14.3330629,9.40192 13.9424686,9.88189714 C13.8017943,10.04696 13.3650629,10.4381829 12.6311429,11.0534286 C12.3616114,11.2662629 12.13872,11.5320229 11.97592,11.8344914 C11.8062057,12.1367086 11.7200914,12.4786514 11.7261257,12.8252457 L11.7261257,13.0805714 L11.7244914,13.0805714 C11.70488,13.5103886 11.3386743,13.8528343 10.8892457,13.8528343 C10.428,13.8528343 10.054,13.4914057 10.054,13.0452457 C10.054,13.0295314 10.054,13.0138171 10.0555086,12.9981029 L10.0555086,12.9988571 Z" id="Fill-1"></path>
                </g>
            </g>
        </g>
    </g>
</svg>