<?xml version="1.0" encoding="UTF-8"?>
<svg width="38px" height="36px" viewBox="0 0 38 36" version="1.1" xmlns="http://www.w3.org/2000/svg" xmlns:xlink="http://www.w3.org/1999/xlink">
    <!-- Generator: Sketch 61 (89581) - https://sketch.com -->
    <title>Icon/往来</title>
    <desc>Created with Sketch.</desc>
    <g id="页面-1" stroke="none" stroke-width="1" fill="none" fill-rule="evenodd">
        <g id="04-1-1申报" transform="translate(-295.000000, -231.000000)">
            <g id="Icon/往来" transform="translate(295.000000, 231.000000)">
                <g id="编组" transform="translate(0.667070, 0.666667)">
                    <path d="M36.6662805,10.0101638 C36.6662805,14.4716582 33.1742748,14.00799 33.1742748,14.00799 L24.4442605,14.00799 C23.1347583,14.00799 19.7881073,15.1861141 19.7881073,19.7189255 C19.7881073,24.359248 24.4442605,25.4300751 24.4442605,25.4300751 L32.5922011,25.4300751 C32.5922011,25.4300751 36.6662805,24.7875788 36.6662805,29.9988664 C36.6662805,34.9153774 33.0403643,35.1300311 32.6298833,35.1385791 L4.07408157,35.1388629 C0.303523369,35.1388629 0.0186476678,31.9465435 0.000708498662,31.2673266 L0.000220382029,9.43898461 C0.000220382029,5.6632571 4.08075001,5.4534063 4.60166868,5.44200007 L32.7715055,5.44223327 C34.1940322,5.45786841 36.6662805,5.73456508 36.6662805,10.0101638 Z M25.6081896,16.8634577 C27.2153853,16.8634577 28.5181217,18.1420254 28.5181217,19.7189255 C28.5181217,21.2960398 27.2153853,22.5746074 25.6081896,22.5746074 C24.000994,22.5746074 22.6982576,21.2960398 22.6982576,19.7189255 C22.6982576,18.1420254 24.000994,16.8634577 25.6081896,16.8634577 Z" id="形状结合" fill="#517CF8"></path>
                    <path d="M16.2961016,4.29901417 L32.0101274,4.29901417 L29.1001954,0.872367206 C29.1001954,0.872367206 27.3181812,-1.09045901 23.8621868,0.872367206 L16.2961016,4.29901417 Z" id="路径" fill="#83A2FA"></path>
                </g>
            </g>
        </g>
    </g>
</svg>