<?xml version="1.0" encoding="UTF-8"?>
<svg width="64px" height="64px" viewBox="0 0 64 64" version="1.1" xmlns="http://www.w3.org/2000/svg" xmlns:xlink="http://www.w3.org/1999/xlink">
    <!-- Generator: Sketch 61.2 (89653) - https://sketch.com -->
    <title>Icon/查询统计</title>
    <desc>Created with Sketch.</desc>
    <g id="Icon/查询统计" stroke="none" stroke-width="1" fill="none" fill-rule="evenodd">
        <path d="M37.9277185,12.2420412 C41.0775952,12.2452547 41.3771318,12.2563486 41.4879839,12.2604543 C43.2584362,12.3328161 44.1750191,13.331409 44.9128683,14.1370372 C46.6932101,16.0811578 50.5621548,20.6640724 52.8726673,23.4041729 C53.6399437,24.3111075 54.2236623,25.0057809 54.4745166,25.2952281 C56.3894513,27.6397508 55.969994,31.0166352 54.5034613,32.8208563 C52.8005467,34.8276905 50.0218533,38.0743236 46.6594412,41.9915095 L46.6594412,41.9915095 L43.2970291,38.609801 C43.0220543,38.3444744 42.6698935,38.1756302 42.2885467,38.1225648 C46.0371296,32.5844744 44.8552201,25.0684945 39.5921045,20.9631678 C34.3287477,16.8578412 26.8033608,17.5814593 22.4085869,22.6130171 C18.0138131,27.649399 18.2646673,35.2522131 22.9826573,39.9798513 C27.7054714,44.7026653 35.2600442,44.9197508 40.2382955,40.4719116 C40.3157226,40.7661829 40.4652704,41.0363337 40.6775317,41.2582432 L40.6775317,41.2582432 L44.2232603,44.8280925 C43.9868784,45.1078915 43.7456724,45.3876905 43.5044663,45.6674894 L43.5044663,45.6674894 L35.4141749,55.0986452 C33.9768281,56.7825045 32.8769286,57.0138211 31.9072804,57.0138211 C30.9810492,57.0138211 29.8377327,56.7870874 28.3953206,55.0986452 L28.3953206,55.0986452 L20.5754211,45.9810573 C15.5438633,40.1149266 11.2841648,35.1509065 9.32557186,32.8401528 L9.32557186,32.8401528 L9.21461709,32.690605 C7.5551196,30.1579417 7.59853668,27.331007 9.33039598,25.2952281 C10.2457729,24.1941226 12.0975317,22.0228663 14.0013117,19.7884414 L14.5211497,19.1782432 C16.1565266,17.2678915 17.772607,15.3720121 18.8146171,14.1370372 C20.2377327,12.4534191 21.5257729,12.2604543 22.369994,12.2604543 C22.369994,12.2604543 28.5393243,12.2455345 33.8689314,12.2419332 Z M31.4971578,21.4890452 C36.625198,21.4890452 40.7787658,25.6763819 40.7787658,30.8333668 C40.7787658,35.9951759 36.625198,40.1774472 31.4971578,40.1774472 C26.3691176,40.1774472 22.2155497,35.9951759 22.2155497,30.8333668 C22.2155497,25.6715578 26.3691176,21.4890452 31.4971578,21.4890452 Z" id="形状结合" fill="#FEB01E"></path>
        <path d="M63.5897159,11.5051826 C63.5829977,11.4906368 63.5764716,11.4760909 63.5695615,11.4615451 C63.4163883,11.1246633 63.224442,10.7990303 62.9797104,10.4962827 C62.7800862,10.2637431 62.315576,9.70498869 61.7051866,8.97595087 C60.0333339,6.97269691 57.3368716,3.74545846 55.7963102,2.00073268 C55.6548458,1.83200086 55.5206753,1.67160866 55.3978296,1.52459864 C54.3183234,0.234091154 53.3372856,0.0331645297 52.6658573,0.017261071 C52.6587552,0.0168731818 52.6522291,0.0159034587 52.645319,0.0155155694 C52.541668,0.0116366771 52.2307149,0 48.2766201,0 C47.2487474,0 46.1239418,0.00096972309 45.000096,0.0021333908 C43.8762501,0.00096972309 42.7514445,0 41.7235718,0 C37.7694771,0 37.458332,0.0116366771 37.354681,0.0155155694 C37.3477709,0.0159034587 37.3412448,0.0168731818 37.3343347,0.017261071 C36.6629064,0.0331645297 35.6818686,0.234091154 34.6023623,1.52459864 C34.4793247,1.67160866 34.3453462,1.83200086 34.2036898,2.00073268 C32.6631284,3.74545846 29.9666661,6.97269691 28.2950053,8.97595087 C27.6846159,9.70498869 27.2201058,10.2637431 27.0204816,10.4962827 C26.775558,10.7990303 26.5836117,11.1246633 26.4304385,11.4615451 C26.4235284,11.4760909 26.4171942,11.4906368 26.4102841,11.5051826 C26.3807244,11.5722875 26.3513566,11.6391984 26.32506,11.7072729 C26.1000988,12.2611788 25.9918411,12.8523219 26.0004787,13.4597565 C25.9924169,14.6368064 26.3740063,15.7725461 26.9972561,16.5475488 C28.3525892,18.160974 30.5638112,20.7716625 33.2395433,23.9211292 L33.2614251,23.8988256 C33.8831394,24.6311604 34.5305744,25.3939446 35.1987396,26.1809719 L35.1782014,26.2021118 C35.3663088,26.4268937 35.5582551,26.6518694 35.7502015,26.8768452 L42.188082,34.4602737 C43.3320822,35.8138132 44.2073576,36 44.9789819,36 C44.9858919,36 44.992994,35.9996121 45.000096,35.9996121 C45.007006,35.9996121 45.0143,36 45.0212101,36 C45.7928344,36 46.6681097,35.8138132 47.81211,34.4602737 L54.2499905,26.8768452 C54.4419368,26.6518694 54.6338832,26.4268937 54.8219906,26.2021118 L54.8014523,26.1809719 C55.4696176,25.3939446 56.1170526,24.6311604 56.7385749,23.8988256 L56.7606487,23.9211292 C59.4363808,20.7716625 61.6474108,18.160974 63.0027439,16.5475488 C63.6259937,15.7725461 64.0075831,14.6368064 63.9995213,13.4597565 C64.0081589,12.8523219 63.8999012,12.2611788 63.67494,11.7072729 C63.6486434,11.6391984 63.6194675,11.5722875 63.5897159,11.5051826 Z" id="Fill-1" fill="#FEB01E" opacity="0.3"></path>
    </g>
</svg>