<?xml version="1.0" encoding="UTF-8"?>
<svg width="33px" height="31px" viewBox="0 0 33 31" version="1.1" xmlns="http://www.w3.org/2000/svg" xmlns:xlink="http://www.w3.org/1999/xlink">
    <!-- Generator: Sketch 61 (89581) - https://sketch.com -->
    <title>上传照片</title>
    <desc>Created with Sketch.</desc>
    <g id="页面-1" stroke="none" stroke-width="1" fill="none" fill-rule="evenodd">
        <g id="04-2-3报销申报" transform="translate(-54.000000, -802.000000)" fill="#0A122D">
            <g id="编组-6" transform="translate(0.000000, 728.000000)">
                <g id="Upload/Image-upload/Avatar" transform="translate(16.000000, 46.000000)">
                    <g id="Group">
                        <g id="上传照片" transform="translate(38.000000, 28.000000)">
                            <path d="M27.3173087,19.517081 C27.9462916,19.517081 28.4539976,20.0300374 28.4539976,20.6655251 L28.4539976,20.6655251 L28.4539976,24.1102866 L31.8634994,24.1102866 C32.4924823,24.1102866 33,24.6230528 33,25.2585405 C33,25.8940281 32.4924823,26.4067943 31.8634994,26.4067943 L31.8634994,26.4067943 L28.4539976,26.4067943 L28.4539976,29.8517461 C28.4539976,30.4872338 27.9462916,31 27.3173087,31 C26.6885141,31 26.1808081,30.4872338 26.1808081,29.8517461 L26.1808081,29.8517461 L26.1808081,26.4067943 L22.7713063,26.4067943 C22.1423234,26.4067943 21.6348057,25.8940281 21.6348057,25.2585405 C21.6348057,24.6230528 22.1423234,24.1102866 22.7713063,24.1102866 L22.7713063,24.1102866 L26.1808081,24.1102866 L26.1808081,20.6655251 C26.1808081,20.0300374 26.6885141,19.517081 27.3173087,19.517081 Z M6.88891003,4 C7.52432356,4 8.03702999,4.50751766 8.03702999,5.1365006 C8.03702999,5.76548353 7.52432356,6.27300119 6.88891003,6.27300119 L6.88891003,6.27300119 L3.44435989,6.27300119 C2.81275123,6.27300119 2.29623993,6.78428522 2.29623993,7.40950179 L2.29623993,7.40950179 L2.29623993,25.5903099 C2.29623993,26.2192928 2.81275123,26.7268105 3.44435989,26.7268105 L3.44435989,26.7268105 L18.3666853,26.7268105 C19.0020988,26.7268105 19.5148052,27.2345165 19.5184199,27.8633111 C19.5184199,28.492294 19.0057134,29 18.3702999,29 L18.3702999,29 L3.44435989,29 C1.54572903,29 0,27.4699143 0,25.5903099 L0,25.5903099 L0,7.40950179 C0,5.53008572 1.54572903,4 3.44435989,4 L3.44435989,4 Z M15.0019336,9 C18.8616889,9 22,12.1374444 22,15.9961338 C22,19.8586893 18.8653628,23 15.0019336,23 C11.1385045,23 8,19.8586893 8,16 C8,12.1374444 11.1421784,9 15.0019336,9 Z M15.0019336,11.329596 C12.4263142,11.329596 10.3339134,13.4212256 10.3339134,15.9961338 C10.3339134,18.5712353 12.4263142,20.6628649 15.0019336,20.6628649 C17.5738792,20.6628649 19.6660866,18.5712353 19.6699539,15.9961338 C19.6699539,13.4212256 17.5775531,11.329596 15.0019336,11.329596 Z M27.5556401,4 C29.454271,4 31,5.53008572 31,7.40950179 L31,7.40950179 L31,16.5016949 C31,17.1306778 30.4872936,17.6383838 29.85188,17.6383838 C29.2164665,17.6383838 28.7037601,17.1306778 28.7037601,16.5016949 L28.7037601,16.5016949 L28.7037601,7.40950179 C28.7037601,6.78428522 28.1908634,6.27300119 27.5556401,6.27300119 L27.5556401,6.27300119 L16.07406,6.27300119 C15.4386464,6.27300119 14.92594,5.76171716 14.92594,5.1365006 C14.92594,4.50751766 15.4386464,4 16.07406,4 L16.07406,4 Z M25.6107688,6.88971337 C26.55236,6.88971337 27.3137307,7.65895783 27.3137307,8.61028663 C27.3137307,9.56161542 26.55236,10.3308599 25.6107688,10.3308599 C24.6691776,10.3308599 23.9078069,9.56161542 23.9078069,8.61028663 C23.9078069,7.65895783 24.6727556,6.88971337 25.6107688,6.88971337 Z M13.6826913,0 C14.3116742,0 14.8191919,0.512956484 14.8191919,1.14825385 C14.8191919,1.78374148 14.3116742,2.29669797 13.6826913,2.29669797 L13.6826913,2.29669797 L9.1365006,2.29669797 C8.50770598,2.29669797 8,1.78374148 8,1.14825385 C8,0.512956484 8.50770598,0 9.1365006,0 L9.1365006,0 Z" id="形状结合"></path>
                        </g>
                    </g>
                </g>
            </g>
        </g>
    </g>
</svg>