<?xml version="1.0" encoding="UTF-8"?>
<svg width="64px" height="64px" viewBox="0 0 64 64" version="1.1" xmlns="http://www.w3.org/2000/svg" xmlns:xlink="http://www.w3.org/1999/xlink">
    <!-- Generator: Sketch 61.2 (89653) - https://sketch.com -->
    <title>Icon/个人信息备份 10</title>
    <desc>Created with Sketch.</desc>
    <g id="Icon/个人信息备份-10" stroke="none" stroke-width="1" fill="none" fill-rule="evenodd">
        <path d="M58.2649214,7.04325831 C59.2795737,6.81795462 60.002968,5.93900518 59.953085,4.97594236 L59.953085,4.97382186 C59.9525369,3.80082902 58.9691299,2.85048923 57.7564076,2.85101936 L47.4077948,2.85101936 L47.4077948,2.06855291 C47.4077948,0.950163077 46.4247533,0 45.2111174,0 C43.9967505,0 43.013709,0.894323104 43.013709,2.06855291 L43.013709,2.85101936 L33.3596205,2.85101936 L33.3572452,2.85101936 C32.1445228,2.85154948 31.161664,3.80277281 31.1622122,4.97541224 L31.1622122,4.97823958 C31.1629431,5.94907758 31.8379162,6.76547212 32.7579188,7.01816566 C31.6133515,8.42176345 27,14.2469682 27,16.9401866 L27,17.0520433 L27.0029235,17.0520433 C27.0665106,20.0744701 29.6995269,22.4755889 33.0126325,22.4755889 C36.3246417,22.4755889 38.9582062,20.0744701 39.0217932,17.0520433 L39.0248995,17.0520433 L39.0248995,16.9967334 L39.0248995,16.8847 C39.0248995,14.2420203 34.5845852,8.62639221 33.3358667,7.09927499 C33.3437238,7.0994517 33.3515808,7.10051195 33.3596205,7.10051195 L43.013709,7.10051195 L43.013709,30.7499773 L40.007941,30.7499773 L40.0050174,30.7499773 C38.7922951,30.7506841 37.8098018,31.7020842 37.8105327,32.8749003 L37.8105327,32.8771975 C37.8114463,34.0500136 38.7950359,35 40.007941,34.9994699 L50.4716683,34.9994699 L50.4720337,35 C51.7437751,35 52.6688939,34.1051468 52.6109712,32.8749003 L52.6109712,32.8726031 C52.6106057,31.6997869 51.6270161,30.7494472 50.414111,30.7499773 L47.4077948,30.7499773 L47.4077948,7.10051195 L57.6659605,7.10051195 C56.4190692,8.6362879 51.9749178,14.2968001 51.9749178,16.9401866 L51.9749178,17.0520433 L51.978024,17.0520433 C52.0430729,20.0746468 54.7323674,22.4755889 57.9875502,22.4755889 C61.2995595,22.4755889 63.9331239,20.0744701 63.9968937,17.0520433 L64,17.0520433 L64,16.9967334 L64,16.9407167 L64,16.9401866 L64,16.8847 C64,14.2079155 59.4451194,8.48219785 58.2649214,7.04325831" id="Fill-1备份" fill="#FF3D27" opacity="0.3"></path>
        <path d="M48.8072981,18.2903538 C50.1236037,17.9942404 51.0620612,16.8390497 50.9973481,15.57331 L50.9973481,15.570523 C50.996637,14.0288753 49.7208659,12.7798573 48.1476045,12.780554 L34.722377,12.780554 L34.722377,11.7521695 C34.722377,10.2822858 33.44708,9.0335 31.8726333,9.0335 C30.2972385,9.0335 29.0219415,10.2088961 29.0219415,11.7521695 L29.0219415,12.780554 L16.4977185,12.780554 L16.494637,12.780554 C14.9213755,12.7812507 13.6463155,14.03143 13.6470267,15.5726132 L13.6470267,15.5763292 C13.6479748,16.8522877 14.5236156,17.9252634 15.7171324,18.2573749 C14.2322884,20.1021034 8.2474,27.7580868 8.2474,31.2977453 L8.2474,31.4447569 L8.2511927,31.4447569 C8.33368404,35.4170893 11.749489,38.5728455 16.0475719,38.5728455 C20.3442325,38.5728455 23.7607485,35.4170893 23.8432399,31.4447569 L23.8472696,31.4447569 L23.8472696,31.3720639 L23.8472696,31.2248201 C23.8472696,27.7515839 18.0868619,20.3710441 16.4669028,18.3639757 C16.4770957,18.3642079 16.4872886,18.3656014 16.4977185,18.3656014 L29.0219415,18.3656014 L29.0219415,49.4477559 L25.1225667,49.4477559 L25.118774,49.4477559 C23.5455125,49.4486848 22.2709266,50.6990963 22.2718748,52.2405118 L22.2718748,52.243531 C22.27306,53.7849465 23.5490682,55.0335 25.1225667,55.0328033 L38.6971318,55.0328033 L38.6976059,55.0335 C40.3474326,55.0335 41.5475867,53.8574072 41.4724437,52.2405118 L41.4724437,52.2374926 C41.4719696,50.6960771 40.1959614,49.4470591 38.622463,49.4477559 L34.722377,49.4477559 L34.722377,18.3656014 L48.0302676,18.3656014 C46.412679,20.3840498 40.6472933,27.8235801 40.6472933,31.2977453 L40.6472933,31.4447569 L40.6513231,31.4447569 C40.7357108,35.4173216 44.2245252,38.5728455 48.4474652,38.5728455 C52.7441258,38.5728455 56.1606419,35.4170893 56.2433703,31.4447569 L56.2474,31.4447569 L56.2474,31.3720639 L56.2474,31.298442 L56.2474,31.2977453 L56.2474,31.2248201 C56.2474,27.7067604 50.3383657,20.1815315 48.8072981,18.2903538" id="Fill-1" fill="#FF3D27"></path>
    </g>
</svg>