<?xml version="1.0" encoding="UTF-8"?>
<svg width="64px" height="64px" viewBox="0 0 64 64" version="1.1" xmlns="http://www.w3.org/2000/svg" xmlns:xlink="http://www.w3.org/1999/xlink">
    <!-- Generator: Sketch 61.2 (89653) - https://sketch.com -->
    <title>Icon/个人信息备份 7</title>
    <desc>Created with Sketch.</desc>
    <g id="Icon/个人信息备份-7" stroke="none" stroke-width="1" fill="none" fill-rule="evenodd">
        <path d="M62.6967435,5.28047831 C62.6934983,5.28342355 62.6902531,5.28604153 62.687008,5.28865952 C60.8895135,2.03352084 57.4876115,0.00981744852 53.791698,0 L40.8853695,0 L40.885694,0 L29.2079833,0 C23.577954,0.00654496568 19.013311,4.60438336 19,10.2821411 L19,26.7181862 C18.9980587,28.5501221 19.4864554,30.3486786 20.4135978,31.9240519 C20.4145713,31.9233974 20.4152204,31.9224156 20.4161939,31.9214339 C22.2487362,35.0653081 25.5928742,36.9964003 29.2079833,37 L43.9578876,37 L43.9578876,37 L53.791698,37 C59.4217273,36.9924733 63.9866948,32.3959439 64,26.7181862 L64,10.2818138 C64,8.53005377 63.5505452,6.80643706 62.6967435,5.28047831" id="路径" fill="#FEB01E" opacity="0.3"></path>
        <path d="M52.8020601,22.1446968 C52.7444621,22.5607444 52.5236109,22.9368145 52.1882704,23.1894148 L42.0761118,30.8406566 L52.1815566,40.9581122 C52.7695508,41.5811222 52.7571832,42.559683 52.1539943,43.1681879 C51.5497454,43.7763391 50.5723463,43.7940282 49.9461889,43.2095804 L39.5202448,32.7708908 L35.0226541,36.1679049 C33.8173365,37.0130899 32.2127199,37.0130899 31.0074023,36.1679049 L28.3953508,34.1835421 L26.5433809,32.7769051 L19.907597,39.4163306 L19.8365713,39.4601995 L19.8715541,39.4527701 L17.5160434,41.8096653 L16.1237973,43.2028586 C15.5047072,43.8219769 14.5011593,43.8219769 13.8817158,43.2028586 L13.8495599,43.1678341 L13.8612208,43.1441308 L13.8417859,43.1565131 C13.2576786,42.5331494 13.282414,41.5524659 13.8884297,40.9513904 L23.9942279,30.8349961 L13.8817158,23.1894148 C13.5449619,22.9378759 13.3230506,22.5610981 13.2665127,22.1439892 C13.15061,21.282884 13.7460248,20.4865209 14.6046944,20.354914 C15.0195413,20.3011392 15.4389819,20.4143494 15.7697287,20.6704875 L31.2975125,32.3944669 L32.9413522,33.6355339 L33.0286326,33.6355339 C33.0639688,33.6415481 33.1000117,33.6415481 33.1357013,33.6355339 L50.3059114,20.6757942 L50.3147454,20.6704875 C50.5589185,20.492889 50.8500888,20.3913536 51.1515065,20.3754334 C51.1723549,20.3676502 51.1921431,20.3584519 51.2126381,20.3506686 C51.2924979,20.3474846 51.3727111,20.3460695 51.4518642,20.354914 C51.8677712,20.415057 52.2430415,20.6368782 52.4967554,20.9722635 C52.7497626,21.3069412 52.8596581,21.7286493 52.8020601,22.1446968 M55.5808984,17.7086252 C55.5773648,17.7118092 55.5738312,17.7146395 55.5702976,17.7174698 C53.6130258,14.1984009 49.9087326,12.0106135 45.8842934,12 L31.8307356,12 L31.831089,12 L19.1153595,12 C12.9848832,12.0070756 8.01449415,16.9777117 8,23.1158282 L8,40.8845256 C7.99788614,42.8649968 8.52969586,44.8093823 9.53925093,46.5124885 C9.54031102,46.5117809 9.54101774,46.5107196 9.54207783,46.5096582 C11.5375127,49.9084412 15.1789075,51.9961084 19.1153595,52 L35.1763665,52 L35.1763665,52 L45.8842934,52 C52.0147697,51.991863 56.9855122,47.022642 57,40.8845256 L57,23.1154744 C57,21.2216798 56.5105937,19.3583103 55.5808984,17.7086252" id="Fill-1" fill="#FEB01E"></path>
    </g>
</svg>