<?xml version="1.0" encoding="UTF-8"?>
<svg width="64px" height="64px" viewBox="0 0 64 64" version="1.1" xmlns="http://www.w3.org/2000/svg" xmlns:xlink="http://www.w3.org/1999/xlink">
    <!-- Generator: Sketch 61.2 (89653) - https://sketch.com -->
    <title>Icon/个人信息备份 5</title>
    <desc>Created with Sketch.</desc>
    <g id="Icon/个人信息备份-5" stroke="none" stroke-width="1" fill="none" fill-rule="evenodd">
        <path d="M42,0 C54.1502645,0 64,9.8497355 64,22 C64,34.1502645 54.1502645,44 42,44 C37.3461865,44 33.0298733,42.5549893 29.4752608,40.0891683 L24.5456508,41.0388477 C23.4735935,41.2374011 22.3753246,40.8514342 21.6646607,40.0251113 C20.9549797,39.1987883 20.7397164,38.0579253 21.1014374,37.0310831 L21.1014374,37.0310831 L22.6815731,32.5347613 C20.971848,29.4061421 20,25.8165647 20,22 C20,9.8497355 29.8497355,0 42,0 Z" id="Fill-5" fill="#267CFF" opacity="0.3"></path>
        <path d="M19.1876399,34.2794369 L19.2243566,34.2661217 C17.7778582,34.2731297 16.5890694,33.1126083 16.5488889,31.6535469 C16.5184071,30.9716705 16.7671106,30.3066133 17.2354214,29.8153539 C17.7030394,29.3212913 18.3500841,29.0423738 19.0262251,29.0430732 L19.1876399,29.0430732 C20.6216685,29.0430732 21.7827467,30.2148087 21.7827467,31.6605549 C21.7820539,33.1063011 20.6216685,34.2794369 19.1876399,34.2794369 M29.6603672,34.2794369 L29.6970839,34.2661217 C28.2505855,34.2731297 27.0617966,33.1126083 27.0216161,31.6535469 C26.9911344,30.9716705 27.2398379,30.3066133 27.7081486,29.8153539 C28.1757666,29.3212913 28.8228114,29.0423738 29.4989524,29.0430732 L29.6603672,29.0430732 C31.0943958,29.0430732 32.255474,30.2148087 32.255474,31.6605549 C32.2547812,33.1063011 31.0943958,34.2794369 29.6603672,34.2794369 M40.1330945,34.2794369 L40.1698112,34.2661217 C38.7233128,34.2731297 37.5345239,33.1126083 37.4943434,31.6535469 C37.4638616,30.9716705 37.7125651,30.3066133 38.1808759,29.8153539 C38.6484939,29.3212913 39.2955387,29.0423738 39.9716797,29.0430732 L40.1330945,29.0430732 C41.567123,29.0430732 42.7282012,30.2148087 42.7282012,31.6605549 C42.7275085,33.1063011 41.567123,34.2794369 40.1330945,34.2794369 M29,7 C42.254834,7 53,17.745166 53,31 C53,44.254834 42.254834,55 29,55 C23.9229174,55 19.2140452,53.4235035 15.336201,50.733328 L9.95889182,51.769652 C8.78937478,51.9862557 7.59126319,51.565201 6.81599349,50.6637578 C6.04179608,49.7623145 5.80696335,48.5177367 6.20156812,47.3975452 L6.20156812,47.3975452 L7.92551931,42.4927721 C6.06026107,39.0796612 5,35.1636492 5,31 C5,17.745166 15.745166,7 29,7 Z" id="Fill-5" fill="#2071FE"></path>
    </g>
</svg>