<?xml version="1.0" encoding="UTF-8"?>
<svg width="64px" height="64px" viewBox="0 0 64 64" version="1.1" xmlns="http://www.w3.org/2000/svg" xmlns:xlink="http://www.w3.org/1999/xlink">
    <!-- Generator: Sketch 61.2 (89653) - https://sketch.com -->
    <title>Icon/个人中心</title>
    <desc>Created with Sketch.</desc>
    <g id="Icon/个人中心" stroke="none" stroke-width="1" fill="none" fill-rule="evenodd">
        <path d="M41.2829272,37.9673121 C41.2829272,43.0003018 37.2035542,47.0730475 32.1785655,47.0730475 C27.1539579,47.0730475 23.0669621,43.0003018 23.0669621,37.9673121 L41.2829272,37.9673121 Z M45.3699231,51.9348783 C51.7792229,47.6238822 56,40.3052145 56,32.0034308 C56,18.7509967 45.2582482,8 32.0001906,8 C18.7417518,8 8,18.7433727 8,32.0034308 C8,40.3124573 12.2207771,47.6315062 18.6300769,51.9348783 C22.4491293,54.503407 27.0495248,56 32.0001906,56 C36.9504752,56 41.543629,54.503407 45.3699231,51.9348783 L45.3699231,51.9348783 Z" id="Fill-1" fill="#2071FE"></path>
        <path d="M55.1416025,36.6123985 C60.4826858,33.0199018 64,26.9210121 64,20.002859 C64,8.9591639 55.0485401,7.10542736e-15 44.0001588,7.10542736e-15 C32.9514599,7.10542736e-15 24,8.95281056 24,20.002859 C24,26.9270478 27.5173142,33.0262552 32.8583975,36.6123985 C36.0409411,38.7528391 39.874604,40 44.0001588,40 C48.125396,40 51.9530241,38.7528391 55.1416025,36.6123985 L55.1416025,36.6123985 Z" id="路径" fill="#267CFF" opacity="0.3"></path>
    </g>
</svg>