<?xml version="1.0" encoding="UTF-8"?>
<svg width="22px" height="22px" viewBox="0 0 22 22" version="1.1" xmlns="http://www.w3.org/2000/svg" xmlns:xlink="http://www.w3.org/1999/xlink">
    <!-- Generator: Sketch 61 (89581) - https://sketch.com -->
    <title>Icon/查询-默认</title>
    <desc>Created with Sketch.</desc>
    <g id="Icon/查询-默认" stroke="none" stroke-width="1" fill="none" fill-rule="evenodd">
        <path d="M10.7264548,3.0828501 C14.9736621,3.0828501 18.4266188,6.63206727 18.4266188,10.9979463 C18.4266188,11.4686141 18.3840739,11.929134 18.3070934,12.3774524 C18.2912272,12.4698705 18.2748908,12.5622886 18.2558514,12.6536194 C18.2513854,12.675244 18.2459791,12.696627 18.241278,12.7183725 C18.1796936,13.0039625 18.1024781,13.2835121 18.0115118,13.5565381 C17.9974085,13.5990625 17.984363,13.6420702 17.9695545,13.6842321 C17.9488697,13.7429448 17.9261869,13.8008118 17.9042092,13.8589205 C17.8823491,13.9167875 17.8609591,13.9746545 17.8378062,14.0319175 C17.8170039,14.08314 17.7949087,14.1336378 17.7731661,14.1843771 C17.7458998,14.2476805 17.7185159,14.3109839 17.6897216,14.3735624 C17.6690368,14.4187446 17.6474118,14.4634435 17.6257867,14.5081425 C17.5929965,14.5760365 17.5596187,14.6434474 17.5249481,14.7102542 C17.5048509,14.7490335 17.4844012,14.7875713 17.4637163,14.8258674 C17.4241096,14.8993186 17.3835626,14.9719242 17.3417228,15.0439258 C17.3238587,15.0747318 17.305877,15.1056586 17.2876602,15.1361023 C17.2385337,15.2181309 17.1879969,15.2990722 17.1361673,15.3789263 C17.1234743,15.398618 17.1108989,15.4185513 17.0979709,15.4381222 C15.7117345,17.5338987 13.3735258,18.9129216 10.7264548,18.9129216 C8.07938392,18.9129216 5.74117516,17.5338987 4.35482127,15.4380014 C4.34201078,15.4185513 4.32955287,15.3987388 4.3168599,15.3791679 C4.26491277,15.299193 4.21437596,15.2182517 4.16524948,15.1362231 C4.1469152,15.1056586 4.12905102,15.0747318 4.11118685,15.0439258 C4.06934708,14.9719242 4.02868258,14.8991978 3.98907582,14.8257466 C3.96850852,14.7875713 3.94805874,14.7491543 3.92807907,14.7104958 C3.89329095,14.6435682 3.85991315,14.5759157 3.82700546,14.5079008 C3.80549793,14.4633227 3.78387288,14.4187446 3.76318805,14.3736832 C3.7342763,14.3109839 3.7068924,14.2476805 3.67974356,14.1842563 C3.65800098,14.133517 3.63578829,14.08314 3.61522098,14.0319175 C3.59206807,13.9747753 3.57056055,13.9169083 3.54881797,13.8590413 C3.52684033,13.8009326 3.50404001,13.7429448 3.48335517,13.6841113 C3.46854671,13.6420702 3.45550117,13.5993041 3.44139787,13.5570214 C3.35054915,13.2837537 3.27333361,13.0042041 3.21163169,12.7186141 C3.20693059,12.6968687 3.20152433,12.6753648 3.19705829,12.6536194 C3.17801884,12.5621678 3.161565,12.4698705 3.14581632,12.3774524 C3.06883583,11.929134 3.02640842,11.4686141 3.02640842,10.9979463 C3.02640842,6.63206727 6.47924759,3.0828501 10.7264548,3.0828501 M19.1753862,15.9400793 C19.1910174,15.9116894 19.2068836,15.8835411 19.2223972,15.8551513 C19.2659999,15.7746931 19.3084273,15.693631 19.350032,15.6119648 C19.3735375,15.5656954 19.3965729,15.5191843 19.4193732,15.4726732 C19.4538088,15.4022422 19.4878917,15.3318112 19.5206819,15.2605345 C19.551004,15.1946941 19.5799157,15.1281289 19.6088275,15.0615637 C19.6331557,15.0056297 19.6580715,14.950058 19.6813419,14.8937615 C19.7295282,14.7774234 19.7754814,14.6599981 19.8194367,14.5416063 C19.8227275,14.5324249 19.8266059,14.5236059 19.8297791,14.5145453 C19.9315579,14.2376534 20.0207612,13.9544796 20.0986819,13.6664734 C20.1007974,13.6588625 20.1026779,13.65101 20.1047934,13.6432782 C20.1415795,13.5057988 20.1753098,13.3671112 20.2065721,13.2274572 L20.2110382,13.2069199 C20.3680549,12.495965 20.4529097,11.7571035 20.4529097,10.9979463 C20.4529097,5.48656615 16.088175,1 10.7264548,1 C5.36473471,1 1,5.48656615 1,10.9979463 C1,11.6025901 1.05453274,12.1940659 1.1553713,12.7691118 C1.1553713,12.7695951 1.15548883,12.7701991 1.15560635,12.7706823 C1.18075723,12.9138398 1.20884629,13.0557891 1.23987354,13.196772 C1.2426942,13.2096985 1.24551486,13.2228665 1.24833552,13.235793 C1.27748233,13.3652991 1.30886216,13.4938388 1.34282759,13.6212912 C1.34764622,13.6397748 1.35222979,13.6582584 1.35716594,13.6766212 C1.39148396,13.8028656 1.42815253,13.9281434 1.46717164,14.0524548 C1.47222532,14.0686431 1.47669137,14.0849522 1.48186258,14.1011404 C1.52464257,14.2352373 1.56989064,14.3682468 1.6180769,14.4998067 C1.64064217,14.561902 1.66555799,14.6226684 1.68941606,14.6841597 C1.7139793,14.747463 1.7379549,14.811008 1.76369342,14.8737074 C1.7987166,14.9591186 1.8359728,15.0430801 1.87311148,15.1271625 C1.88897769,15.1629216 1.90449131,15.1989224 1.9207101,15.2344399 C1.96384268,15.328791 2.00873817,15.4221755 2.05457387,15.5148352 C2.06515135,15.5360974 2.07561129,15.5573596 2.08618876,15.5786218 C2.13801837,15.6813086 2.19125831,15.7830289 2.24637869,15.8836619 C2.24884676,15.8882526 2.25143237,15.8927225 2.25390044,15.8973132 C2.76549746,16.8294675 3.41765733,17.668962 4.18146827,18.3855949 L4.20168299,18.40879 C4.22389568,18.429569 4.24740117,18.449019 4.26973139,18.4695564 C4.30028853,18.497463 4.33143331,18.5242824 4.3622255,18.5518266 C4.43873587,18.6199623 4.51536378,18.6876148 4.59387212,18.7533343 C4.63136338,18.7847444 4.66967733,18.8150672 4.70752117,18.8457524 C4.78144594,18.9059148 4.85537071,18.9655939 4.93082334,19.0233401 C4.97524872,19.0572871 5.02049679,19.0899053 5.0655098,19.1231275 C5.13649639,19.1756789 5.2076005,19.2283512 5.28023247,19.2788489 C5.33135691,19.3146081 5.38365663,19.3487968 5.43536871,19.3834686 C5.50376969,19.4292549 5.57205315,19.4752827 5.64151187,19.5193776 C5.69921785,19.5558616 5.75798158,19.5905335 5.8162752,19.6259302 C5.88220811,19.665676 5.9476709,19.7060259 6.01454402,19.7442012 C6.07812638,19.7805644 6.14288401,19.8147531 6.20717153,19.8496666 C6.27087141,19.8842176 6.33410118,19.9193728 6.39862375,19.952595 C6.4677299,19.9881125 6.53812885,20.0212139 6.60817521,20.0550401 C6.6697596,20.0847589 6.73075635,20.1154441 6.7930459,20.1439548 C6.86732325,20.177781 6.94289341,20.2093119 7.01799345,20.2412052 C7.07793246,20.2666957 7.1371663,20.2932734 7.19769294,20.3175558 C7.2763188,20.3492075 7.35623748,20.3780806 7.43580356,20.4076786 C7.49444977,20.429424 7.55262586,20.4523775 7.6118597,20.4730357 C7.69412892,20.501788 7.77769094,20.5275201 7.86101791,20.5540978 C7.91895894,20.5724606 7.9765474,20.5922731 8.03495854,20.6095487 C8.12051853,20.6349183 8.20713627,20.6573886 8.29363648,20.6803421 C8.35122493,20.6956847 8.40822575,20.7123562 8.46628431,20.7266116 C8.55478249,20.7484778 8.64469099,20.7669614 8.73412939,20.7862907 C8.79124773,20.7986131 8.84777844,20.8123852 8.90524936,20.8236204 C8.99668573,20.8415 9.08929736,20.8559969 9.18167394,20.8712187 C9.23832218,20.8805209 9.2945003,20.8916353 9.35150112,20.8998502 C9.44681589,20.9139847 9.5431884,20.9242534 9.63932586,20.9352469 C9.69444624,20.9416498 9.74886145,20.9497439 9.80409936,20.9550594 C9.90869879,20.9652073 10.0142385,20.9716101 10.1196606,20.9782546 C10.1674943,20.9812748 10.2147403,20.9862279 10.2626915,20.9886441 C10.4162999,20.9960133 10.570966,21 10.7264548,21 C10.8819437,21 11.0366098,20.9960133 11.1902182,20.9886441 C11.2381694,20.9862279 11.285533,20.9812748 11.3332491,20.9782546 C11.4387888,20.9716101 11.5442109,20.9652073 11.6488103,20.9550594 C11.7039307,20.9497439 11.7583459,20.9416498 11.8133488,20.9352469 C11.9096038,20.9242534 12.0060938,20.9139847 12.1014086,20.8998502 C12.1584094,20.8916353 12.2143525,20.8806417 12.2708832,20.8712187 C12.3633773,20.8559969 12.4561064,20.8415 12.5476603,20.8236204 C12.6050137,20.8123852 12.6615444,20.7986131 12.7184277,20.7862907 C12.8081012,20.7670822 12.8980097,20.7484778 12.9866254,20.7266116 C13.0446839,20.7123562 13.1016848,20.6956847 13.1592732,20.6803421 C13.2457734,20.6573886 13.3325087,20.6349183 13.4179511,20.6095487 C13.4763623,20.5922731 13.5338332,20.5724606 13.5917743,20.5540978 C13.6751012,20.5275201 13.7587808,20.501788 13.8411675,20.4730357 C13.9001663,20.4523775 13.9581073,20.4295448 14.016636,20.4077994 C14.0964372,20.3782014 14.1764734,20.3492075 14.2552168,20.3175558 C14.3156259,20.2932734 14.3748597,20.2668165 14.4346812,20.241326 C14.5098988,20.2093119 14.5854689,20.1779018 14.6598638,20.1439548 C14.7220358,20.1154441 14.7832676,20.0847589 14.8447345,20.0550401 C14.9148984,20.0212139 14.9851798,19.9881125 15.0542859,19.952595 C15.1188085,19.9193728 15.1820383,19.8842176 15.2457382,19.8496666 C15.3100257,19.8147531 15.3749008,19.7805644 15.4383657,19.7442012 C15.5051213,19.7060259 15.5707016,19.665676 15.636517,19.6259302 C15.6949281,19.5905335 15.7536918,19.5558616 15.8113978,19.5193776 C15.8808565,19.4752827 15.94914,19.4292549 16.017541,19.3834686 C16.0693706,19.3487968 16.1215528,19.3146081 16.1726772,19.2788489 C16.2453092,19.2283512 16.3164133,19.1756789 16.3875174,19.1231275 C16.4324129,19.0899053 16.4777785,19.0572871 16.5220863,19.0233401 C16.597539,18.9655939 16.6714637,18.9059148 16.7453885,18.8457524 C16.7832324,18.8150672 16.8215463,18.7847444 16.8590376,18.7533343 C16.9375459,18.6876148 17.0142913,18.6199623 17.0905667,18.5518266 C17.1214764,18.5242824 17.1526212,18.497463 17.1831783,18.4695564 C17.2055085,18.449019 17.229014,18.429569 17.2513442,18.40879 L19.666651,20.5792259 L21,19.0087223 L18.60291,16.8568909 C18.8097583,16.5632067 18.9998002,16.2563545 19.1753862,15.9400793" id="Fill-3" fill="#517CF8"></path>
    </g>
</svg>