<?xml version="1.0" encoding="UTF-8"?>
<svg width="22px" height="22px" viewBox="0 0 22 22" version="1.1" xmlns="http://www.w3.org/2000/svg" xmlns:xlink="http://www.w3.org/1999/xlink">
    <!-- Generator: Sketch 61 (89581) - https://sketch.com -->
    <title>Icon/审批</title>
    <desc>Created with Sketch.</desc>
    <g id="Icon/审批" stroke="none" stroke-width="1" fill="none" fill-rule="evenodd">
        <path d="M11.2406779,1.06584242 C15.9675048,1.06584242 19.8116875,4.92061515 19.8116875,9.66035758 C19.8124279,11.0521909 19.4744952,12.4230242 18.8268702,13.6541758 L18.8268702,13.6541758 L21.9416683,18.6609788 L18.3419183,18.7815697 L16.4561587,21.9963727 L13.8740144,17.8344485 C12.0096202,18.4396303 9.99450481,18.3840545 8.16607212,17.6770545 L8.16607212,17.6770545 L5.48545673,21.9999788 L3.59980288,18.7851758 L-5.28846155e-05,18.6645848 L3.41375481,13.1603576 C2.93599519,12.0888273 2.66977404,10.9075242 2.66977404,9.66035758 C2.66977404,4.92061515 6.51395673,1.06584242 11.2406779,1.06584242 Z M17.699899,15.2962061 C17.2477356,15.8118727 16.7370817,16.2764182 16.1753413,16.6749939 C16.1535529,16.6933424 16.1316587,16.7079788 16.1097644,16.7225091 C15.9420144,16.8396 15.7705625,16.9493727 15.5955144,17.0554333 C15.5809183,17.0663576 15.5663221,17.0772818 15.551726,17.0846 L15.551726,17.0846 L16.408774,18.4669939 L17.273226,16.9931758 L18.721101,16.9420545 Z M4.32199519,15.1572667 L3.21321635,16.9456606 L4.66109135,16.9931758 L5.52554327,18.4669939 L6.53214904,16.8396 C6.00689904,16.4885394 5.52184135,16.0861455 5.08416827,15.6327364 L5.08416827,15.6327364 L4.32199519,15.1572667 Z M11.5,6 L10.4168591,8.30367763 L8,8.6709493 L9.74994884,10.4664279 L9.33719706,13 L11.5,11.801795 L13.6628029,13 L13.2500512,10.4664279 L15,8.6709493 L12.5831409,8.30367763 L11.5,6 Z" id="形状结合" fill="#517CF8"></path>
    </g>
</svg>