<?xml version="1.0" encoding="UTF-8"?>
<svg width="22px" height="22px" viewBox="0 0 22 22" version="1.1" xmlns="http://www.w3.org/2000/svg" xmlns:xlink="http://www.w3.org/1999/xlink">
    <!-- Generator: Sketch 61 (89581) - https://sketch.com -->
    <title>Icon/申报</title>
    <desc>Created with Sketch.</desc>
    <g id="Icon/申报" stroke="none" stroke-width="1" fill="none" fill-rule="evenodd">
        <path d="M11.0000402,1 C16.5124009,1 20.9999893,5.48769022 20.9999893,11.0000509 C20.9999893,16.5124115 16.5124009,21 11.0000402,21 C5.48778131,21 0.99998934,16.5124115 0.99998934,11.0000509 C0.99998934,5.48769022 5.48778131,1 11.0000402,1 Z M11.7562038,5.48599531 L10.3207356,5.48599531 L10.3207356,7.58067009 L8.17219841,7.58067009 C7.11521528,7.58067009 6.25824072,8.37047273 6.25824072,9.34460675 L6.25824072,9.34460675 L6.25824072,14.4642124 L10.3207356,14.4642124 L10.3207356,16.4370653 L11.7562038,16.4370653 L11.7562038,14.4642124 L13.904741,14.4642124 C14.9618437,14.4642124 15.8186987,13.67452 15.8186987,12.7002757 L15.8186987,12.7002757 L15.8186987,7.58067009 L11.7562038,7.58067009 L11.7562038,5.48599531 Z M10.3207356,11.6844687 L10.3207356,13.1412599 L7.69370899,13.1412599 L7.69370899,11.6844687 L10.3207356,11.6844687 Z M14.3832304,11.6844687 L14.3832304,12.4797837 C14.3832304,12.8450288 14.0618051,13.1412599 13.6654963,13.1412599 L13.6654963,13.1412599 L11.7562038,13.1412599 L11.7562038,11.6844687 L14.3832304,11.6844687 Z M10.3207356,8.90362258 L10.3207356,10.3615162 L7.69370899,10.3615162 L7.69370899,9.56509883 C7.69370899,9.1998537 8.01513426,8.90362258 8.41144313,8.90362258 L8.41144313,8.90362258 L10.3207356,8.90362258 Z M14.3832304,8.90362258 L14.3832304,10.3615162 L11.7562038,10.3615162 L11.7562038,8.90362258 L14.3832304,8.90362258 Z" id="形状结合" fill="#517CF8"></path>
    </g>
</svg>