<?xml version="1.0" encoding="UTF-8"?>
<svg width="24px" height="24px" viewBox="0 0 24 24" version="1.1" xmlns="http://www.w3.org/2000/svg" xmlns:xlink="http://www.w3.org/1999/xlink">
    <!-- Generator: Sketch 61 (89581) - https://sketch.com -->
    <title>icon/手机号</title>
    <desc>Created with Sketch.</desc>
    <g id="页面-1" stroke="none" stroke-width="1" fill="none" fill-rule="evenodd">
        <g id="02-3个人中心" transform="translate(-16.000000, -352.000000)" fill="#333333">
            <g id="图文列表/单行列表-1_13-copy" transform="translate(0.000000, 338.000000)">
                <g id="icon/手机号" transform="translate(16.000000, 14.000000)">
                    <path d="M11.87232,16.0860343 C12.2297143,16.0860343 12.5365029,16.18464 12.7749943,16.4135314 C13.0132114,16.6267886 13.1322514,16.9054629 13.1322514,17.2491429 C13.1322514,17.5928229 12.9960686,17.8714971 12.7578514,18.1010743 C12.5136,18.3168 12.1980343,18.4335086 11.87232,18.4285714 C11.5320686,18.4285714 11.2251429,18.3136457 10.9867886,18.0848914 C10.7546057,17.8697143 10.6245943,17.5658057 10.6293943,17.2491429 C10.6293943,16.9054629 10.7485714,16.6267886 10.9867886,16.4135314 C11.2251429,16.18464 11.5320686,16.0860343 11.87232,16.0860343 L11.87232,16.0860343 Z M12,22.2857143 C17.68032,22.2857143 22.2857143,17.68032 22.2857143,12 C22.2857143,6.31968 17.68032,1.71428571 12,1.71428571 C6.31968,1.71428571 1.71428571,6.31968 1.71428571,12 C1.71428571,17.68032 6.31968,22.2857143 12,22.2857143 L12,22.2857143 Z M12,24 C5.37257143,24 0,18.6274286 0,12 C0,5.37257143 5.37257143,0 12,0 C18.6274286,0 24,5.37257143 24,12 C24,18.6274286 18.6274286,24 12,24 L12,24 Z M10.9696457,14.1805714 L10.9696457,13.992 C10.9696457,13.3851429 11.0725029,12.8605714 11.3100343,12.4354286 C11.5320686,11.9768229 12.1792457,11.3048229 13.2342857,10.4039314 L13.5239314,10.0928914 C13.8308571,9.71574857 14.00064,9.32228571 14.00064,8.89714286 C14.00064,8.32292571 13.8308571,7.88146286 13.5067886,7.55314286 C13.1665371,7.22578286 12.6728229,7.06203429 12.0600686,7.06203429 C11.2928914,7.06203429 10.7314286,7.29174857 10.3911771,7.76653714 C10.0868571,8.15574857 9.93435429,8.70596571 9.93092571,9.41664 C9.93449143,9.44845714 9.93613714,9.48041143 9.936,9.51250286 C9.936,9.99085714 9.53485714,10.3782857 9.03949714,10.3782857 C8.544,10.3782857 8.14285714,9.99085714 8.14285714,9.51250286 C8.14285714,9.48740571 8.14395429,9.46230857 8.14628571,9.43721143 L8.14285714,9.43721143 C8.14285714,8.24146286 8.50038857,7.30806857 9.216,6.61974857 C9.93092571,5.91510857 10.9182171,5.57142857 12.1792457,5.57142857 C13.2685714,5.57142857 14.1539657,5.84996571 14.8354286,6.43968 C15.5168914,7.01321143 15.8571429,7.79917714 15.8571429,8.78235429 C15.8571429,9.58464 15.6360686,10.25664 15.2099657,10.7802514 C15.0565029,10.96032 14.5800686,11.3871086 13.7794286,12.0582857 C13.4853943,12.2904686 13.24224,12.5803886 13.06464,12.9103543 C12.8794971,13.2400457 12.7855543,13.6130743 12.7921371,13.9911771 L12.7921371,14.2697143 L12.7903543,14.2697143 C12.76896,14.7386057 12.3694629,15.1121829 11.8791771,15.1121829 C11.376,15.1121829 10.968,14.7178971 10.968,14.2311771 C10.968,14.2140343 10.968,14.1968914 10.9696457,14.1797486 L10.9696457,14.1805714 Z" id="Fill-1"></path>
                </g>
            </g>
        </g>
    </g>
</svg>