<?xml version="1.0" encoding="UTF-8"?>
<svg width="48px" height="48px" viewBox="0 0 48 48" version="1.1" xmlns="http://www.w3.org/2000/svg" xmlns:xlink="http://www.w3.org/1999/xlink">
    <!-- Generator: Sketch 61 (89581) - https://sketch.com -->
    <title>Icon/眼睛</title>
    <desc>Created with Sketch.</desc>
    <g id="Icon/眼睛" stroke="none" stroke-width="1" fill="none" fill-rule="evenodd">
        <path d="M24,7 C32.836556,7 40.836556,12.6666667 48,24 C40.836556,35.3333333 32.836556,41 24,41 C15.163444,41 7.163444,35.3333333 0,24 C7.163444,12.6666667 15.163444,7 24,7 Z M24,11 C17.2589701,11 10.8689236,15.1823673 4.79085599,24 C10.8689236,32.8176327 17.2589701,37 24,37 C30.7410299,37 37.1310764,32.8176327 43.209144,24 C37.1310764,15.1823673 30.7410299,11 24,11 Z M24,15 C28.9705627,15 33,19.0294373 33,24 C33,28.9705627 28.9705627,33 24,33 C19.0294373,33 15,28.9705627 15,24 C15,19.0294373 19.0294373,15 24,15 Z M24,19 C21.2385763,19 19,21.2385763 19,24 C19,26.7614237 21.2385763,29 24,29 C26.7614237,29 29,26.7614237 29,24 C29,21.2385763 26.7614237,19 24,19 Z" id="形状结合" fill="#CCCCCC"></path>
    </g>
</svg>